# Blender 4.1.1
# www.blender.org
mtllib rightArm.mtl
o rightArm
v -0.724005 -0.065080 0.400682
v -1.882325 -2.385319 0.400682
v -0.724005 -0.065080 -0.400682
v -1.882325 -2.385319 -0.400682
v 0.035325 -0.444156 0.400682
v -1.122995 -2.764395 0.400682
v 0.035325 -0.444156 -0.400682
v -1.122995 -2.764395 -0.400682
vn 0.4467 0.8947 -0.0000
vn -0.0000 -0.0000 -1.0000
vn 0.8947 -0.4467 -0.0000
vn -0.4467 -0.8947 -0.0000
vn -0.8947 0.4467 -0.0000
vn -0.0000 -0.0000 1.0000
vt 0.086977 0.827598
vt 0.018854 0.827598
vt 0.018854 0.763274
vt 0.086977 0.763274
vt 0.295137 0.763274
vt 0.086977 0.695151
vt 0.295137 0.695151
vt 0.295137 0.960045
vt 0.086977 0.960045
vt 0.086977 0.895721
vt 0.295137 0.895721
vt 0.363260 0.827598
vt 0.295137 0.827598
vt 0.363260 0.763274
s 0
usemtl マテリアル
f 1/1/1 5/2/1 7/3/1 3/4/1
f 4/5/2 3/4/2 7/6/2 8/7/2
f 8/8/3 7/9/3 5/10/3 6/11/3
f 6/12/4 2/13/4 4/5/4 8/14/4
f 2/13/5 1/1/5 3/4/5 4/5/5
f 6/11/6 5/10/6 1/1/6 2/13/6
