# Blender 4.1.1
# www.blender.org
mtllib body.mtl
o body
v -1.000000 3.830930 1.000000
v -1.000000 0.577541 1.000000
v -1.000000 3.830930 -1.000000
v 1.000000 3.830930 1.000000
v 1.000000 3.830930 -1.000000
v 1.000000 0.577541 1.000000
v 1.000000 0.577541 -1.000000
v -1.000000 0.577541 -1.000000
vn -1.0000 -0.0000 -0.0000
vn -0.0000 -0.0000 1.0000
vn -0.0000 1.0000 -0.0000
vn 1.0000 -0.0000 -0.0000
vn -0.0000 -1.0000 -0.0000
vn -0.0000 -0.0000 -1.0000
vt 0.439492 0.338958
vt 0.178348 0.338958
vt 0.178348 0.178421
vt 0.439492 0.178421
vt 0.439492 0.499494
vt 0.178348 0.499494
vt 0.017811 0.338958
vt 0.017811 0.178421
vt 0.439492 0.660031
vt 0.178348 0.660031
vt 0.600028 0.338958
vt 0.600028 0.178421
vt 0.178348 0.017885
vt 0.439492 0.017885
s 0
usemtl マテリアル
f 2/1/1 1/2/1 3/3/1 8/4/1
f 6/5/2 4/6/2 1/2/2 2/1/2
f 1/2/3 4/7/3 5/8/3 3/3/3
f 7/9/4 5/10/4 4/6/4 6/5/4
f 6/11/5 2/1/5 8/4/5 7/12/5
f 8/4/6 3/3/6 5/13/6 7/14/6
