# Blender 4.1.1
# www.blender.org
mtllib head.mtl
o head
v -0.899641 2.276857 0.999999
v -0.899641 0.571593 1.000000
v 0.899641 2.276857 0.999999
v -0.899641 2.276857 -1.000000
v -0.899641 0.571593 -1.000000
v 0.899641 2.276857 -1.000000
v 0.899641 0.571593 -1.000000
v 0.899641 0.571593 1.000000
vn -1.0000 -0.0000 -0.0000
vn -0.0000 -0.0000 1.0000
vn -0.0000 1.0000 -0.0000
vn -0.0000 -0.0000 -1.0000
vn 1.0000 -0.0000 -0.0000
vn -0.0000 -1.0000 -0.0000
vt 0.638199 0.377773
vt 0.775077 0.377773
vt 0.775077 0.538309
vt 0.638199 0.538309
vt 0.638199 0.233347
vt 0.775077 0.233347
vt 0.919503 0.377773
vt 0.919503 0.538309
vt 0.775077 0.682735
vt 0.638199 0.682735
vt 0.638199 0.072811
vt 0.775077 0.072811
vt 0.493773 0.377773
vt 0.493773 0.538309
s 0
usemtl マテリアル
f 2/1/1 1/2/1 4/3/1 5/4/1
f 8/5/2 3/6/2 1/2/2 2/1/2
f 1/2/3 3/7/3 6/8/3 4/3/3
f 5/4/4 4/3/4 6/9/4 7/10/4
f 7/11/5 6/12/5 3/6/5 8/5/5
f 8/13/6 2/1/6 5/4/6 7/14/6
