# Blender 4.1.1
# www.blender.org
mtllib leftArm.mtl
o leftArm
v -0.035325 -0.444156 0.400682
v -0.035325 -0.444156 -0.400682
v 0.724005 -0.065080 0.400682
v 1.122995 -2.764395 0.400682
v 1.122995 -2.764395 -0.400682
v 1.882325 -2.385319 0.400682
v 1.882325 -2.385319 -0.400682
v 0.724005 -0.065080 -0.400682
vn -0.4467 0.8947 -0.0000
vn -0.8947 -0.4467 -0.0000
vn -0.0000 -0.0000 1.0000
vn 0.4467 -0.8947 -0.0000
vn 0.8947 0.4467 -0.0000
vn -0.0000 -0.0000 -1.0000
vt 0.674614 0.850302
vt 0.742738 0.850302
vt 0.742738 0.914626
vt 0.674614 0.914626
vt 0.466454 0.850302
vt 0.466454 0.914626
vt 0.466454 0.782178
vt 0.674614 0.782178
vt 0.398331 0.850302
vt 0.398331 0.914626
vt 0.466454 0.717854
vt 0.674614 0.717854
vt 0.674614 0.982749
vt 0.466454 0.982749
s 0
usemtl マテリアル
f 1/1/1 3/2/1 8/3/1 2/4/1
f 4/5/2 1/1/2 2/4/2 5/6/2
f 6/7/3 3/8/3 1/1/3 4/5/3
f 6/9/4 4/5/4 5/6/4 7/10/4
f 7/11/5 8/12/5 3/8/5 6/7/5
f 5/6/6 2/4/6 8/13/6 7/14/6
