# Blender 4.1.1
# www.blender.org
mtllib playerModel.mtl
o Cube.003
v -1.939385 4.737070 0.400682
v -3.097705 2.416831 0.400682
v -1.939385 4.737070 -0.400682
v -3.097705 2.416831 -0.400682
v -1.180055 4.357994 0.400682
v -2.338375 2.037755 0.400682
v -1.180055 4.357994 -0.400682
v -2.338375 2.037755 -0.400682
v -1.000000 4.683632 1.000000
v -1.000000 1.430243 1.000000
v -1.000000 4.683632 -1.000000
v 1.000000 4.683632 1.000000
v 1.000000 1.430243 1.000000
v 1.000000 4.683632 -1.000000
v 1.000000 1.430243 -1.000000
v -1.000000 1.430243 -1.000000
v -0.899641 6.755423 1.000000
v -0.899641 5.050159 1.000000
v -0.899641 6.755423 -1.000000
v 0.899641 6.755423 1.000000
v 0.899641 5.050159 1.000000
v 0.899641 6.755423 -1.000000
v 0.899641 5.050159 -1.000000
v -0.899641 5.050159 -1.000000
v 1.180055 4.357994 0.400682
v 2.338375 2.037755 0.400682
v 1.180055 4.357994 -0.400682
v 1.939385 4.737070 0.400682
v 3.097705 2.416831 0.400682
v 1.939385 4.737070 -0.400682
v 3.097705 2.416831 -0.400682
v 2.338375 2.037755 -0.400682
vn 0.4467 0.8947 -0.0000
vn -0.0000 -0.0000 -1.0000
vn 0.8947 -0.4467 -0.0000
vn -0.4467 -0.8947 -0.0000
vn -0.8947 0.4467 -0.0000
vn -0.0000 -0.0000 1.0000
vn -1.0000 -0.0000 -0.0000
vn -0.0000 1.0000 -0.0000
vn 1.0000 -0.0000 -0.0000
vn -0.0000 -1.0000 -0.0000
vn -0.8947 -0.4467 -0.0000
vn -0.4467 0.8947 -0.0000
vn 0.8947 0.4467 -0.0000
vn 0.4467 -0.8947 -0.0000
vt 0.086977 0.827598
vt 0.018854 0.827598
vt 0.018854 0.763274
vt 0.086977 0.763274
vt 0.295137 0.763274
vt 0.086977 0.695151
vt 0.295137 0.695151
vt 0.295137 0.960045
vt 0.086977 0.960045
vt 0.086977 0.895721
vt 0.295137 0.895721
vt 0.363260 0.827598
vt 0.295137 0.827598
vt 0.363260 0.763274
vt 0.439492 0.499494
vt 0.178348 0.499494
vt 0.178348 0.338958
vt 0.439492 0.338958
vt 0.178348 0.178421
vt 0.439492 0.178421
vt 0.017811 0.338958
vt 0.017811 0.178421
vt 0.439492 0.660031
vt 0.178348 0.660031
vt 0.178348 0.017885
vt 0.439492 0.017885
vt 0.600028 0.338958
vt 0.600028 0.178421
vt 0.638199 0.233347
vt 0.775077 0.233347
vt 0.775077 0.377773
vt 0.638199 0.377773
vt 0.775077 0.538309
vt 0.638199 0.538309
vt 0.919503 0.377773
vt 0.919503 0.538309
vt 0.638199 0.072811
vt 0.775077 0.072811
vt 0.775077 0.682735
vt 0.638199 0.682735
vt 0.493773 0.377773
vt 0.493773 0.538309
vt 0.466454 0.782178
vt 0.674614 0.782178
vt 0.674614 0.850302
vt 0.466454 0.850302
vt 0.674614 0.914626
vt 0.466454 0.914626
vt 0.742738 0.850302
vt 0.742738 0.914626
vt 0.466454 0.717854
vt 0.674614 0.717854
vt 0.674614 0.982749
vt 0.466454 0.982749
vt 0.398331 0.850302
vt 0.398331 0.914626
s 0
usemtl マテリアル
f 1/1/1 5/2/1 7/3/1 3/4/1
f 4/5/2 3/4/2 7/6/2 8/7/2
f 8/8/3 7/9/3 5/10/3 6/11/3
f 6/12/4 2/13/4 4/5/4 8/14/4
f 2/13/5 1/1/5 3/4/5 4/5/5
f 6/11/6 5/10/6 1/1/6 2/13/6
f 13/15/6 12/16/6 9/17/6 10/18/6
f 10/18/7 9/17/7 11/19/7 16/20/7
f 9/17/8 12/21/8 14/22/8 11/19/8
f 15/23/9 14/24/9 12/16/9 13/15/9
f 16/20/2 11/19/2 14/25/2 15/26/2
f 13/27/10 10/18/10 16/20/10 15/28/10
f 21/29/6 20/30/6 17/31/6 18/32/6
f 18/32/7 17/31/7 19/33/7 24/34/7
f 17/31/8 20/35/8 22/36/8 19/33/8
f 23/37/9 22/38/9 20/30/9 21/29/9
f 24/34/2 19/33/2 22/39/2 23/40/2
f 21/41/10 18/32/10 24/34/10 23/42/10
f 29/43/6 28/44/6 25/45/6 26/46/6
f 26/46/11 25/45/11 27/47/11 32/48/11
f 25/45/12 28/49/12 30/50/12 27/47/12
f 31/51/13 30/52/13 28/44/13 29/43/13
f 32/48/2 27/47/2 30/53/2 31/54/2
f 29/55/14 26/46/14 32/48/14 31/56/14
